<?xml version="1.0" encoding="utf-8"?>
<!-- Uploaded to: SVG Repo, www.svgrepo.com, Generator: SVG Repo Mixer Tools -->
<svg width="800px" height="800px" viewBox="0 0 64 64" xmlns="http://www.w3.org/2000/svg">
<defs>
<style>.cls-1{fill:#bfad88;}.cls-1,.cls-2,.cls-5{stroke:#54596e;}.cls-1,.cls-2,.cls-4,.cls-5{stroke-linecap:round;stroke-linejoin:round;stroke-width:2px;}.cls-2{fill:#54596e;}.cls-3{fill:#ff927d;}.cls-4,.cls-5{fill:none;}.cls-4{stroke:#f4a14e;}</style>
</defs>
<title>shit-sunglasses</title>
<g id="shit-sunglasses">
<path class="cls-1" d="M50.5,35h-.71A31,31,0,0,0,50,31.5,5.5,5.5,0,0,0,44.5,26H42a4.22,4.22,0,0,0,.74-2.39,4.46,4.46,0,0,0-4.53-4.39H34.93a10.4,10.4,0,0,1-8.46-8.78,12.27,12.27,0,0,0-7.08,8.78l-.17,3.09A5.57,5.57,0,0,0,20.62,26H17.5A5.5,5.5,0,0,0,12,31.5a31,31,0,0,0,.21,3.5H11.5C7.36,35,4,39.36,4,43.5S7.36,52,11.5,52H14v2.5a2.5,2.5,0,0,0,5,0V52H50.5c4.14,0,7.5-4.36,7.5-8.5S54.64,35,50.5,35Z"/>
<circle class="cls-2" cx="23" cy="32" r="6"/>
<circle class="cls-2" cx="38" cy="32" r="6"/>
<path class="cls-2" d="M26,41a5,5,0,0,0,10,0Z"/>
<ellipse class="cls-3" cx="31" cy="44" rx="2" ry="1"/>
<line class="cls-4" x1="5.59" y1="12.59" x2="8.41" y2="15.41"/>
<line class="cls-4" x1="5.59" y1="15.41" x2="8.41" y2="12.59"/>
<line class="cls-4" x1="51.59" y1="14.59" x2="54.41" y2="17.41"/>
<line class="cls-4" x1="51.59" y1="17.41" x2="54.41" y2="14.59"/>
<line class="cls-4" x1="40.59" y1="4.59" x2="43.41" y2="7.41"/>
<line class="cls-4" x1="40.59" y1="7.41" x2="43.41" y2="4.59"/>
<line class="cls-5" x1="13" y1="31" x2="49" y2="31"/>
</g>
</svg>